# xmcd
#
# Track frame offsets: 
#        150
#        24429
#        41914
#        68074
#        96281
#        120938
#        141100
#        160655
#
# Disc length: 2393 seconds
#
# Revision: 0
# Processed by: cddbd v1.5.2PL0 Copyright (c) Steve Scherf et al.
# Submitted via: ExactAudioCopyFreeDBPlugin 1.0
#
DISCID=61095708
DTITLE=Sand - Sand
DYEAR=1973
DGENRE=
TTITLE0=Who Ya Tryin' To Fool
TTITLE1=Lovin' You
TTITLE2=You
TTITLE3=Destined Road
TTITLE4=Mystery
TTITLE5=She
TTITLE6=Eagle's Claw
TTITLE7=Lady Of Mine
EXTD=
EXTT0=
EXTT1=
EXTT2=
EXTT3=
EXTT4=
EXTT5=
EXTT6=
EXTT7=
PLAYORDER=
